# xmcd
#
# Track frame offsets:
# 150
# 18190
# 32631
# 48509
# 63650
# 77185
# 92950
# 108212
# 126461
# 141969
# 158134
# 176232
# 190326
# 203985
# 220521
# 238200
#
# Disc length: 3398 seconds
#
#
# Revision: 0
# Processed by: cddbd v1.5.1PL0 Copyright (c) Steve Scherf et al.
# Submitted via: FreeRIP 2.70 
#
DISCID=ea0d4410
DTITLE=Tony Ramey - Places
DYEAR=2004
DGENRE=Country
TTITLE0=Watertower Skyline
TTITLE1=This Ain't California
TTITLE2=Bluer Than The Grass
TTITLE3=Human Being
TTITLE4=If Your Gonna Get Lost
TTITLE5=Let Me Be Lonely
TTITLE6=Lines
TTITLE7=Broke Down In Georgia
TTITLE8=That's How I Was Raised
TTITLE9=Dreaming Enough To Get Me By
TTITLE10=West Texas Lonely
TTITLE11=Closer To The Truth
TTITLE12=Finer Things
TTITLE13=Scars
TTITLE14=Feels Like Home
TTITLE15=Pray Hard
EXTD=
EXTT0=
EXTT1=
EXTT2=
EXTT3=
EXTT4=
EXTT5=
EXTT6=
EXTT7=
EXTT8=
EXTT9=
EXTT10=
EXTT11=
EXTT12=
EXTT13=
EXTT14=
EXTT15=
PLAYORDER=
